<svg
    xmlns="http://www.w3.org/2000/svg"
    xmlns:xlink="http://www.w3.org/1999/xlink"
    width="168px" height="168px">
    <path fill-rule="evenodd" fill="rgb(204, 204, 204)"
          d="M84.000,0.000 C130.392,0.000 168.000,37.608 168.000,84.000 C168.000,130.392 130.392,168.000 84.000,168.000 C37.608,168.000 0.000,130.392 0.000,84.000 C0.000,37.608 37.608,0.000 84.000,0.000 Z"/>
    <path fill-rule="evenodd" fill="rgb(255, 255, 255)"
          d="M91.319,103.618 C91.319,100.358 91.735,97.795 92.568,95.929 C93.400,94.064 95.154,92.208 97.828,90.361 C102.736,87.494 106.824,83.939 110.090,79.696 C113.354,75.454 114.988,70.839 114.988,65.850 C114.988,58.191 112.194,52.132 106.605,47.673 C101.017,43.216 93.313,40.986 83.495,40.986 C74.378,40.986 66.981,42.989 61.305,46.996 C55.629,51.002 52.857,56.776 52.988,64.318 L53.120,64.672 L71.792,64.672 C71.835,61.334 72.986,58.800 75.244,57.071 C77.501,55.343 80.251,54.479 83.495,54.479 C87.440,54.479 90.474,55.500 92.601,57.542 C94.726,59.585 95.790,62.413 95.790,66.027 C95.790,69.288 94.858,72.234 92.995,74.865 C91.132,77.497 88.645,79.952 85.533,82.230 C80.229,85.883 76.690,88.987 74.915,91.539 C73.140,94.093 72.230,98.119 72.187,103.618 L91.319,103.618 ZM91.450,113.281 L72.121,113.281 L72.121,128.011 L91.450,128.011 L91.450,113.281 Z"/>
</svg>
