<?xml version="1.0" encoding="iso-8859-1"?>
<!-- Generator: Adobe Illustrator 23.0.1, SVG Export Plug-In . SVG Version: 6.00 Build 0)  -->
<svg version="1.1" id="&#x56FE;&#x5C42;_1" xmlns="http://www.w3.org/2000/svg" xmlns:xlink="http://www.w3.org/1999/xlink" x="0px"
     y="0px" viewBox="0 0 22 20" style="enable-background:new 0 0 22 20;" xml:space="preserve">
<g>
	<defs>
		<rect id="SVGID_1_" y="-4" width="24" height="24"/>
	</defs>
    <clipPath id="SVGID_2_">
		<use xlink:href="#SVGID_1_" style="overflow:visible;"/>
	</clipPath>
    <rect x="-5" y="-9" style="opacity:0;clip-path:url(#SVGID_2_);fill:#6b10ff;" width="34" height="34"/>
</g>
    <g>
	<defs>
		<path id="SVGID_3_" d="M7.204,18.883c-0.047,0.66-0.624,1.157-1.289,1.11c-0.665-0.047-1.166-0.619-1.119-1.279
			c0.214-3.007,1.223-5.266,3.065-6.689c0.526-0.406,1.285-0.313,1.694,0.209c0.41,0.522,0.315,1.275-0.211,1.681
			C8.1,14.877,7.373,16.503,7.204,18.883z M18.689,10.107c-0.391,0.536-1.145,0.656-1.686,0.269
			c-0.54-0.388-0.661-1.136-0.271-1.672c0.49-0.673,0.758-1.479,0.758-2.329c0-2.198-1.796-3.979-4.011-3.979
			c-2.215,0-4.011,1.781-4.011,3.979s1.796,3.979,4.011,3.979c5.086,0,7.947,2.915,8.334,8.361c0.047,0.66-0.454,1.233-1.119,1.279
			c-0.665,0.047-1.242-0.451-1.289-1.11c-0.302-4.239-2.161-6.134-5.926-6.134c-3.548,0-6.425-2.854-6.425-6.375
			C7.054,2.854,9.931,0,13.479,0c3.548,0,6.425,2.854,6.425,6.375C19.905,7.732,19.474,9.029,18.689,10.107z M1.207,15.752
			C0.54,15.752,0,15.216,0,14.554s0.54-1.198,1.207-1.198h2.409c0.667,0,1.207,0.536,1.207,1.198s-0.54,1.198-1.207,1.198H1.207z
			 M1.207,10.562C0.54,10.562,0,10.026,0,9.364c0-0.661,0.54-1.198,1.207-1.198H5.49c0.667,0,1.207,0.536,1.207,1.198
			c0,0.661-0.54,1.198-1.207,1.198H1.207z M1.207,5.771C0.54,5.771,0,5.235,0,4.573s0.54-1.198,1.207-1.198h3.77
			c0.667,0,1.207,0.536,1.207,1.198s-0.54,1.198-1.207,1.198H1.207z"/>
	</defs>
        <clipPath id="SVGID_4_">
		<use xlink:href="#SVGID_3_" style="overflow:visible;"/>
	</clipPath>
        <rect x="-4.958" y="-4.999" style="clip-path:url(#SVGID_4_);fill:#6b10ff;" width="31.734" height="29.995"/>
</g>
</svg>
