<?xml version="1.0" encoding="iso-8859-1"?>
<!-- Generator: Adobe Illustrator 23.0.1, SVG Export Plug-In . SVG Version: 6.00 Build 0)  -->
<svg version="1.1" id="&#x56FE;&#x5C42;_1" xmlns="http://www.w3.org/2000/svg" xmlns:xlink="http://www.w3.org/1999/xlink" x="0px"
     y="0px" viewBox="0 0 18 18" style="enable-background:new 0 0 18 18;" xml:space="preserve">
<g>
	<defs>
		<circle id="SVGID_1_" cx="9" cy="9" r="9"/>
	</defs>
    <clipPath id="SVGID_2_">
		<use xlink:href="#SVGID_1_" style="overflow:visible;"/>
	</clipPath>
    <rect x="-5" y="-5" style="clip-path:url(#SVGID_2_);fill:#FFD411;" width="28" height="28"/>
</g>
    <g>
	<defs>
		<circle id="SVGID_3_" cx="9" cy="9" r="6.48"/>
	</defs>
        <clipPath id="SVGID_4_">
		<use xlink:href="#SVGID_3_" style="overflow:visible;"/>
	</clipPath>
        <rect x="-2.48" y="-2.48" style="clip-path:url(#SVGID_4_);fill:#FFA500;" width="22.96" height="22.96"/>
</g>
    <g>
	<defs>
		<path id="SVGID_5_" d="M8.609,12.48c-0.278-0.04-0.538-0.109-0.782-0.208c-0.413-0.167-0.767-0.404-1.06-0.71
			c-0.293-0.306-0.516-0.674-0.669-1.102C5.945,10.035,5.87,9.562,5.87,9.041c0-0.496,0.072-0.959,0.218-1.389
			c0.146-0.433,0.36-0.81,0.642-1.131c0.283-0.322,0.63-0.576,1.04-0.763c0.258-0.117,0.538-0.198,0.84-0.241V5.283
			c0-0.324,0.263-0.587,0.587-0.587s0.587,0.263,0.587,0.587v0.233c0.073,0.009,0.144,0.02,0.214,0.033
			c0.269,0.049,0.551,0.158,0.852,0.329c0.174,0.107,0.335,0.223,0.484,0.346c0.153,0.127,0.278,0.256,0.374,0.386
			c0.105,0.143,0.166,0.289,0.178,0.437c0.015,0.18-0.068,0.336-0.216,0.439c-0.069,0.06-0.15,0.112-0.243,0.155
			c-0.099,0.046-0.204,0.073-0.314,0.081c-0.109,0.008-0.217-0.004-0.324-0.034c-0.119-0.033-0.226-0.098-0.327-0.197
			c-0.23-0.242-0.443-0.404-0.635-0.486C9.632,6.923,9.401,6.881,9.129,6.881c-0.23,0-0.446,0.048-0.648,0.144
			C8.278,7.122,8.103,7.259,7.953,7.438C7.802,7.619,7.68,7.841,7.588,8.105c-0.092,0.264-0.138,0.56-0.138,0.891
			c0,0.337,0.045,0.638,0.134,0.902c0.088,0.262,0.211,0.482,0.367,0.662c0.155,0.179,0.339,0.316,0.555,0.413
			c0.215,0.097,0.453,0.146,0.716,0.146c0.183,0,0.352-0.035,0.509-0.105c0.16-0.072,0.301-0.17,0.423-0.295
			c0.122-0.124,0.218-0.273,0.289-0.448c0.05-0.122,0.082-0.253,0.097-0.393H9.749c-0.26,0-0.459-0.047-0.598-0.152
			C9,9.61,8.931,9.421,8.931,9.177c0-0.244,0.072-0.435,0.226-0.56c0.144-0.116,0.345-0.169,0.601-0.169h1.545
			c0.31,0,0.539,0.086,0.666,0.273c0.112,0.164,0.161,0.416,0.161,0.764c0,0.396-0.05,0.775-0.15,1.135
			c-0.102,0.369-0.272,0.696-0.508,0.978c-0.238,0.285-0.543,0.511-0.914,0.676c-0.229,0.102-0.488,0.173-0.776,0.211v0.232
			c0,0.324-0.263,0.587-0.587,0.587s-0.587-0.263-0.587-0.587V12.48z"/>
	</defs>
        <clipPath id="SVGID_6_">
		<use xlink:href="#SVGID_5_" style="overflow:visible;"/>
	</clipPath>
        <rect x="0.87" y="-0.304" style="clip-path:url(#SVGID_6_);fill:#FFFFFF;" width="16.261" height="18.609"/>
</g>
</svg>
