<?xml version="1.0" encoding="iso-8859-1"?>
<!-- Generator: Adobe Illustrator 23.0.1, SVG Export Plug-In . SVG Version: 6.00 Build 0)  -->
<svg version="1.1" id="&#x56FE;&#x5C42;_1" xmlns="http://www.w3.org/2000/svg" xmlns:xlink="http://www.w3.org/1999/xlink" x="0px"
     y="0px" viewBox="0 0 36 38" style="enable-background:new 0 0 36 38;" xml:space="preserve">
<g>
	<defs>
		<path id="SVGID_1_" d="M8.307,10.561h19.382c3.058,0,5.538,2.542,5.538,5.677v16.085c0,3.135-2.48,5.677-5.538,5.677H8.307
			c-3.058,0-5.538-2.542-5.538-5.677V16.238C2.769,13.103,5.248,10.561,8.307,10.561z"/>
	</defs>
    <clipPath id="SVGID_2_">
		<use xlink:href="#SVGID_1_" style="overflow:visible;"/>
	</clipPath>
    <g style="clip-path:url(#SVGID_2_);">
		<defs>
			<rect id="SVGID_3_" x="-313" y="-496" width="360" height="640"/>
		</defs>
        <clipPath id="SVGID_4_">
			<use xlink:href="#SVGID_3_" style="overflow:visible;"/>
		</clipPath>
        <rect x="-2.231" y="5.561" style="clip-path:url(#SVGID_4_);fill:#FF429F;" width="40.458" height="37.439"/>
	</g>
</g>
    <g>
	<defs>
		<path id="SVGID_5_" d="M16.801,6.819c0,0-5.711-7.134-7.384-6.549c0,0-3.057-1.812-4.615,9.355v0.936h4.615
			c0,0-0.779-6.724,1.846-5.613l5.538,5.613L16.801,6.819L16.801,6.819z M18.862,6.776c0,0,5.711-7.215,7.384-6.623
			c0,0,3.057-1.833,4.615,9.462v0.946h-4.615c0,0,0.779-6.801-1.846-5.677l-5.538,5.677L18.862,6.776L18.862,6.776z M13.844,38
			h8.307V20.969h-8.307V38z"/>
	</defs>
        <clipPath id="SVGID_6_">
		<use xlink:href="#SVGID_5_" style="overflow:visible;"/>
	</clipPath>
        <g style="clip-path:url(#SVGID_6_);">
		<defs>
			<rect id="SVGID_7_" x="-313" y="-496" width="360" height="640"/>
		</defs>
            <clipPath id="SVGID_8_">
			<use xlink:href="#SVGID_7_" style="overflow:visible;"/>
		</clipPath>
            <rect x="-0.198" y="-4.957" style="clip-path:url(#SVGID_8_);fill:#FFC334;" width="36.059" height="47.957"/>
	</g>
</g>
    <g>
	<defs>
		<path id="SVGID_9_" d="M5.076,10.561h25.843c2.803,0,5.076,2.33,5.076,5.204s-2.273,5.204-5.076,5.204H5.076
			C2.273,20.969,0,18.639,0,15.765S2.273,10.561,5.076,10.561z"/>
	</defs>
        <clipPath id="SVGID_10_">
		<use xlink:href="#SVGID_9_" style="overflow:visible;"/>
	</clipPath>
        <g style="clip-path:url(#SVGID_10_);">
		<defs>
			<rect id="SVGID_11_" x="-313" y="-496" width="360" height="640"/>
		</defs>
            <clipPath id="SVGID_12_">
			<use xlink:href="#SVGID_11_" style="overflow:visible;"/>
		</clipPath>
            <rect x="-5" y="5.561" style="clip-path:url(#SVGID_12_);fill:#FF85BF;" width="45.996" height="20.408"/>
	</g>
</g>
    <g>
	<defs>
		<path id="SVGID_13_" d="M17.998,6.776c2.294,0,4.153,1.906,4.153,4.258v2.839c0,2.352-1.86,4.258-4.153,4.258
			s-4.153-1.906-4.153-4.258v-2.839C13.844,8.682,15.704,6.776,17.998,6.776z"/>
	</defs>
        <clipPath id="SVGID_14_">
		<use xlink:href="#SVGID_13_" style="overflow:visible;"/>
	</clipPath>
        <g style="clip-path:url(#SVGID_14_);">
		<defs>
			<rect id="SVGID_15_" x="-313" y="-496" width="360" height="640"/>
		</defs>
            <clipPath id="SVGID_16_">
			<use xlink:href="#SVGID_15_" style="overflow:visible;"/>
		</clipPath>
            <rect x="8.844" y="1.776" style="clip-path:url(#SVGID_16_);fill:#FFD974;" width="18.307" height="21.354"/>
	</g>
</g>
    <g>
	<defs>
		<rect id="SVGID_17_" x="13.844" y="10.561" width="8.307" height="10.408"/>
	</defs>
        <clipPath id="SVGID_18_">
		<use xlink:href="#SVGID_17_" style="overflow:visible;"/>
	</clipPath>
        <g style="clip-path:url(#SVGID_18_);">
		<defs>
			<rect id="SVGID_19_" x="-313" y="-496" width="360" height="640"/>
		</defs>
            <clipPath id="SVGID_20_">
			<use xlink:href="#SVGID_19_" style="overflow:visible;"/>
		</clipPath>
            <rect x="8.844" y="5.561" style="clip-path:url(#SVGID_20_);fill:#FFD974;" width="18.307" height="20.408"/>
	</g>
</g>
</svg>
