<svg width="384px" height="113px" viewBox="0 0 384 113" version="1.1" xmlns="http://www.w3.org/2000/svg" xmlns:xlink="http://www.w3.org/1999/xlink">
    <title>livu-logo</title>
    <g id="livu-logo" stroke="none" stroke-width="1" fill="none" fill-rule="evenodd">
        <path d="M112.491056,46.5512039 C120.68364,46.5512039 127.325042,54.0072862 127.325042,63.2048298 L127.325042,96.346374 C127.325042,105.543918 120.68364,113 112.491056,113 C104.298472,113 97.6570707,105.543918 97.6570707,96.346374 L97.6570707,63.2048298 C97.6570707,54.0072862 104.298472,46.5512039 112.491056,46.5512039 Z M14.8645161,0.16563852 C23.0739617,0.16563852 29.7290323,6.78754659 29.7290323,14.9560842 L29.7290323,56.1632959 C29.7290323,70.736314 41.691609,82.580062 56.4851613,82.580062 L69.8632258,82.580062 C78.0726714,82.580062 84.7277419,89.2019701 84.7277419,97.3705076 C84.7277419,105.539045 78.0726714,112.160953 69.8632258,112.160953 L56.4851613,112.160953 C25.3058184,112.160953 2.84217094e-14,87.106507 2.84217094e-14,56.1632959 L2.84217094e-14,14.9560842 C2.84217094e-14,6.78754659 6.65507056,0.16563852 14.8645161,0.16563852 Z M369.135484,0.16563852 C377.344929,0.16563852 384,6.78754659 384,14.9560842 L384,56.1632959 C384,87.106507 358.694182,112.160953 327.514839,112.160953 C296.335496,112.160953 271.029677,87.106507 271.029677,56.1632959 L271.029677,14.9560842 C271.029677,6.78754659 277.684748,0.16563852 285.894194,0.16563852 C294.103639,0.16563852 300.75871,6.78754659 300.75871,14.9560842 L300.75871,56.1632959 C300.75871,70.736314 312.721286,82.580062 327.514839,82.580062 C342.308391,82.580062 354.270968,70.736314 354.270968,56.1632959 L354.270968,14.9560842 C354.270968,6.78754659 360.926038,0.16563852 369.135484,0.16563852 Z M246.996563,1.74034955 C254.331964,5.40802102 257.290357,14.2981421 253.604317,21.5969908 L211.983672,104.011414 C206.496137,114.877466 190.90737,114.877466 185.419834,104.011414 L143.799189,21.5969908 C140.11315,14.2981421 143.071543,5.40802102 150.406944,1.74034955 C157.742345,-1.92732191 166.676988,1.01632884 170.363027,8.31517752 L198.701753,64.4296316 L227.04048,8.31517752 C230.726519,1.01632884 239.661162,-1.92732191 246.996563,1.74034955 Z M112.491056,0 C120.68364,0 127.325042,6.73588062 127.325042,15.0450104 C127.325042,23.3541403 120.68364,30.0900209 112.491056,30.0900209 C104.298472,30.0900209 97.6570707,23.3541403 97.6570707,15.0450104 C97.6570707,6.73588062 104.298472,0 112.491056,0 Z" id="形状结合" fill="#6b10ff"></path>
    </g>
</svg>
