<svg xmlns="http://www.w3.org/2000/svg" xmlns:xlink="http://www.w3.org/1999/xlink" version="1.1" id="marker" x="0px" y="0px" viewBox="0 0 156 200" style="enable-background:new 0 0 156 200;" xml:space="preserve">
<g>
	<path
        d="M70,1c6,0,12,0,18,0c0.748,0.296,1.472,0.74,2.247,0.866c56.234,9.119,84.15,70.914,52.94,118.542   c-11.564,17.647-25.105,34.008-37.891,50.844C97.679,181.281,89.775,191.091,82,201c-2,0-4,0-6,0   c-1.434-1.557-3.004-3.011-4.28-4.688c-18.045-23.72-36.285-47.297-54.015-71.252C-13.749,82.562,3.541,23.982,52.804,5.685   C58.351,3.625,64.259,2.538,70,1z M79.222,50.732c-15.314-0.106-27.698,12.091-27.755,27.335   c-0.056,15.137,12.465,27.727,27.551,27.703c14.936-0.024,27.218-12.191,27.506-27.25C106.814,63.381,94.49,50.838,79.222,50.732z"/>
    <path style="fill:rgba(255,255,255,0);" d="M79.222,50.732c15.268,0.106,27.592,12.649,27.302,27.788c-0.288,15.059-12.57,27.226-27.506,27.25   c-15.086,0.024-27.607-12.566-27.551-27.703C51.524,62.823,63.908,50.626,79.222,50.732z"/>
</g>
</svg>
