<?xml version="1.0" encoding="iso-8859-1"?>
<!-- Generator: Adobe Illustrator 23.0.1, SVG Export Plug-In . SVG Version: 6.00 Build 0)  -->
<svg version="1.1" id="&#x56FE;&#x5C42;_1" xmlns="http://www.w3.org/2000/svg" xmlns:xlink="http://www.w3.org/1999/xlink" x="0px"
     y="0px" viewBox="0 0 22 21" style="enable-background:new 0 0 22 21;" xml:space="preserve">
<g>
	<defs>
		<rect id="SVGID_1_" x="-0.75" y="-0.756" width="23.5" height="23.492"/>
	</defs>
    <clipPath id="SVGID_2_">
		<use xlink:href="#SVGID_1_" style="overflow:visible;"/>
	</clipPath>
    <rect x="-5.646" y="-5.65" style="opacity:0;clip-path:url(#SVGID_2_);fill:#6b10ff;" width="33.292" height="33.28"/>
</g>
    <path style="fill:none;stroke:#6b10ff;stroke-width:2;stroke-linecap:round;stroke-linejoin:round;stroke-miterlimit:10;" d="
	M19.126,15.908c0.023-0.615,0.097-1.048,0.221-1.299c0.612-1.239,0.955-2.634,0.955-4.109c0-5.136-4.165-9.299-9.302-9.299
	S1.698,5.364,1.698,10.5c0,5.136,4.165,9.299,9.302,9.299c0.98,0,3.763,0,8.347,0"/>
    <g>
	<defs>
		<circle id="SVGID_3_" cx="6.104" cy="10.5" r="1.468"/>
	</defs>
        <clipPath id="SVGID_4_">
		<use xlink:href="#SVGID_3_" style="overflow:visible;"/>
	</clipPath>
        <rect x="-0.26" y="4.138" style="clip-path:url(#SVGID_4_);fill:#6b10ff;" width="12.729" height="12.725"/>
</g>
    <g>
	<defs>
		<circle id="SVGID_5_" cx="11" cy="10.5" r="1.468"/>
	</defs>
        <clipPath id="SVGID_6_">
		<use xlink:href="#SVGID_5_" style="overflow:visible;"/>
	</clipPath>
        <rect x="4.635" y="4.138" style="clip-path:url(#SVGID_6_);fill:#6b10ff;" width="12.729" height="12.725"/>
</g>
    <g>
	<defs>
		<circle id="SVGID_7_" cx="15.896" cy="10.5" r="1.468"/>
	</defs>
        <clipPath id="SVGID_8_">
		<use xlink:href="#SVGID_7_" style="overflow:visible;"/>
	</clipPath>
        <rect x="9.531" y="4.138" style="clip-path:url(#SVGID_8_);fill:#6b10ff;" width="12.729" height="12.725"/>
</g>
</svg>
