<?xml version="1.0" encoding="iso-8859-1"?>
<!-- Generator: Adobe Illustrator 23.0.1, SVG Export Plug-In . SVG Version: 6.00 Build 0)  -->
<svg version="1.1" id="&#x56FE;&#x5C42;_1" xmlns="http://www.w3.org/2000/svg" xmlns:xlink="http://www.w3.org/1999/xlink" x="0px"
     y="0px" viewBox="0 0 22 22" style="enable-background:new 0 0 22 22;" xml:space="preserve">
<g>
	<g>
		<defs>
			<rect id="SVGID_1_" width="22" height="22"/>
		</defs>
        <clipPath id="SVGID_2_">
			<use xlink:href="#SVGID_1_" style="overflow:visible;"/>
		</clipPath>

        <path style="clip-path:url(#SVGID_2_);fill:none;stroke:#6b10ff;stroke-width:2;stroke-linecap:round;stroke-linejoin:round;stroke-miterlimit:10;" d="
			M17.529,17.434c1.631-1.655,2.637-3.927,2.637-6.434c0-5.063-4.104-9.167-9.167-9.167S1.833,5.937,1.833,11
			S5.937,20.167,11,20.167c1.397,0,2.721-0.313,3.906-0.872"/>
	</g>
    <g>
		<defs>
			<rect id="SVGID_3_" width="22" height="22"/>
		</defs>
        <clipPath id="SVGID_4_">
			<use xlink:href="#SVGID_3_" style="overflow:visible;"/>
		</clipPath>

        <path style="clip-path:url(#SVGID_4_);fill:none;stroke:#6b10ff;stroke-width:2;stroke-linecap:round;stroke-linejoin:round;stroke-miterlimit:10;" d="
			M14.667,9.167c-0.611-1.222-1.68-1.833-3.208-1.833c-2.292,0-3.208,0.917-3.586,1.833c-0.378,0.917-0.378,2.75,0,3.667
			c0.378,0.917,1.294,1.836,3.586,1.836c1.528,0,2.597-0.612,3.208-1.836v-1.375H11"/>
	</g>
    <g>
		<defs>
			<rect id="SVGID_5_" width="22" height="22"/>
		</defs>
        <clipPath id="SVGID_6_">
			<use xlink:href="#SVGID_5_" style="overflow:visible;"/>
		</clipPath>

        <line style="clip-path:url(#SVGID_6_);fill:none;stroke:#6b10ff;stroke-width:2;stroke-linecap:round;stroke-miterlimit:10;" x1="11" y1="7.333" x2="11" y2="6.417"/>
	</g>
    <g>
		<defs>
			<rect id="SVGID_7_" width="22" height="22"/>
		</defs>
        <clipPath id="SVGID_8_">
			<use xlink:href="#SVGID_7_" style="overflow:visible;"/>
		</clipPath>

        <line style="clip-path:url(#SVGID_8_);fill:none;stroke:#6b10ff;stroke-width:2;stroke-linecap:round;stroke-linejoin:round;stroke-miterlimit:10;" x1="11" y1="14.667" x2="11" y2="15.583"/>
	</g>
</g>
</svg>
